<?xml version="1.0" encoding="UTF-8"?>
<!DOCTYPE svg PUBLIC "-//W3C//DTD SVG 1.1//EN" "http://www.w3.org/Graphics/SVG/1.1/DTD/svg11.dtd">
<svg xmlns="http://www.w3.org/2000/svg" version="1.1" width="2000px" height="2000px" style="shape-rendering:geometricPrecision; text-rendering:geometricPrecision; image-rendering:optimizeQuality; fill-rule:evenodd; clip-rule:evenodd" xmlns:xlink="http://www.w3.org/1999/xlink">
<g><path style="opacity:0.926" fill="#fefffe" d="M 1166.5,858.5 C 1169.5,858.5 1172.5,858.5 1175.5,858.5C 1175.33,905.168 1175.5,951.835 1176,998.5C 1176,1005.17 1179.33,1008.5 1186,1008.5C 1186.49,1010.13 1186.66,1011.8 1186.5,1013.5C 1166.83,1013.5 1147.17,1013.5 1127.5,1013.5C 1127.34,1011.8 1127.51,1010.13 1128,1008.5C 1134.06,1008.48 1137.4,1005.48 1138,999.5C 1138.67,958.833 1138.67,918.167 1138,877.5C 1137.73,874.648 1136.9,871.982 1135.5,869.5C 1132.94,868.24 1130.44,866.906 1128,865.5C 1127.33,863.833 1127.33,862.167 1128,860.5C 1140.92,860.917 1153.75,860.25 1166.5,858.5 Z"/></g>
<g><path style="opacity:0.882" fill="#fefffe" d="M 767.5,859.5 C 773.176,859.334 778.843,859.501 784.5,860C 796.616,863.393 801.116,871.227 798,883.5C 793.697,892.243 786.53,896.243 776.5,895.5C 764.881,896.21 757.214,891.21 753.5,880.5C 745.267,886.246 739.434,893.913 736,903.5C 723.05,940.186 710.217,976.853 697.5,1013.5C 689.58,1013.82 681.747,1013.48 674,1012.5C 656.018,969.864 638.018,927.197 620,884.5C 618.363,882.19 616.196,880.69 613.5,880C 610.967,877.916 610.967,875.916 613.5,874C 636.406,873.173 659.239,873.34 682,874.5C 682.72,876.112 682.554,877.612 681.5,879C 677.79,879.895 674.123,880.895 670.5,882C 669.643,882.689 668.977,883.522 668.5,884.5C 679.121,914.324 690.788,943.991 703.5,973.5C 710.429,954.548 717.262,935.548 724,916.5C 725.724,909.763 726.891,902.93 727.5,896C 727.398,885.399 722.065,879.899 711.5,879.5C 711.261,877.533 711.594,875.699 712.5,874C 726.512,873.833 740.512,873.333 754.5,872.5C 756.551,865.782 760.885,861.449 767.5,859.5 Z"/></g>
<g><path style="opacity:0.907" fill="#fefffe" d="M 787.5,907.5 C 790.5,907.5 793.5,907.5 796.5,907.5C 796.333,938.835 796.5,970.168 797,1001.5C 797.273,1003.33 798.107,1004.83 799.5,1006C 801.98,1006.96 804.48,1007.79 807,1008.5C 807.494,1010.13 807.66,1011.8 807.5,1013.5C 787.831,1013.67 768.164,1013.5 748.5,1013C 747.14,1011.06 747.473,1009.4 749.5,1008C 753.768,1008.29 756.602,1006.45 758,1002.5C 758.667,976.167 758.667,949.833 758,923.5C 757.55,921.481 756.717,919.648 755.5,918C 752.898,917.023 750.398,915.856 748,914.5C 747.333,913.167 747.333,911.833 748,910.5C 761.29,909.882 774.457,908.882 787.5,907.5 Z"/></g>
<g><path style="opacity:0.887" fill="#fefffe" d="M 941.5,907.5 C 944.448,907.223 947.281,907.556 950,908.5C 950.333,939.167 950.667,969.833 951,1000.5C 951.473,1005.14 953.973,1007.48 958.5,1007.5C 963.855,1006.97 967.688,1004.31 970,999.5C 970.667,973.833 970.667,948.167 970,922.5C 968.839,918.174 966.005,915.841 961.5,915.5C 960.534,913.604 960.201,911.604 960.5,909.5C 976.538,909.647 992.538,908.98 1008.5,907.5C 1009.83,936.493 1009.83,965.493 1008.5,994.5C 1008.5,1001.98 1012,1006.64 1019,1008.5C 1019.5,1010.47 1019.66,1012.47 1019.5,1014.5C 1014.19,1013.95 1008.86,1013.61 1003.5,1013.5C 993.478,1014.07 983.478,1014.57 973.5,1015C 972.333,1014.5 971.5,1013.67 971,1012.5C 970.667,1010.5 970.333,1008.5 970,1006.5C 959.076,1014.27 946.909,1017.1 933.5,1015C 922.766,1013.27 916.266,1007.1 914,996.5C 912.809,971.853 912.142,947.186 912,922.5C 910.813,918.145 907.98,915.811 903.5,915.5C 902.526,913.257 902.192,910.924 902.5,908.5C 915.674,909.907 928.674,909.574 941.5,907.5 Z"/></g>
<g><path style="opacity:0.866" fill="#fefffe" d="M 844.5,908.5 C 857.584,907.048 870.084,909.048 882,914.5C 884.546,913.548 886.046,911.715 886.5,909C 888.259,908.202 889.926,908.369 891.5,909.5C 892.54,921.416 892.54,933.416 891.5,945.5C 889.5,945.5 887.5,945.5 885.5,945.5C 884.286,935.34 880.286,926.507 873.5,919C 866.769,914.263 860.269,914.429 854,919.5C 851.712,925.198 852.379,930.531 856,935.5C 866.927,944.715 877.76,954.048 888.5,963.5C 898.514,976.144 899.014,989.144 890,1002.5C 877.766,1012.95 863.6,1017.12 847.5,1015C 840.583,1012.97 833.917,1010.47 827.5,1007.5C 824.391,1008.28 822.724,1010.28 822.5,1013.5C 820.167,1013.5 817.833,1013.5 815.5,1013.5C 816.306,1000.18 816.639,986.85 816.5,973.5C 818.604,973.201 820.604,973.534 822.5,974.5C 823.697,985.278 827.697,994.778 834.5,1003C 839.842,1007.68 845.842,1009.01 852.5,1007C 856.641,1004.22 858.141,1000.38 857,995.5C 856.562,992.624 855.562,989.957 854,987.5C 845.304,978.469 836.304,969.803 827,961.5C 818.649,952.781 815.316,942.447 817,930.5C 819.641,923.521 824.141,918.021 830.5,914C 835.317,912.234 839.983,910.401 844.5,908.5 Z"/></g>
<g><path style="opacity:0.889" fill="#fefffe" d="M 1061.5,908.5 C 1071.88,908.162 1082.22,908.662 1092.5,910C 1105.24,912.742 1112.41,920.575 1114,933.5C 1114.33,956.833 1114.67,980.167 1115,1003.5C 1115.33,1003.83 1115.67,1004.17 1116,1004.5C 1118.29,1002.4 1120.79,1001.74 1123.5,1002.5C 1125.01,1004.97 1124.67,1007.14 1122.5,1009C 1118.77,1011.13 1114.77,1012.47 1110.5,1013C 1103.5,1013.67 1096.5,1013.67 1089.5,1013C 1083.5,1011.83 1079.5,1008.33 1077.5,1002.5C 1066.54,1013.42 1053.54,1016.59 1038.5,1012C 1027.03,1004.88 1022.86,994.716 1026,981.5C 1027.97,975.854 1031.47,971.354 1036.5,968C 1046.19,963.214 1056.19,959.214 1066.5,956C 1075.6,953.146 1079.27,946.98 1077.5,937.5C 1077.41,932.788 1076.91,928.121 1076,923.5C 1071.66,914.943 1065.16,912.776 1056.5,917C 1065.94,921.62 1069.44,929.12 1067,939.5C 1059.78,951.279 1049.95,954.113 1037.5,948C 1029.22,939.552 1028.38,930.386 1035,920.5C 1042.78,914.078 1051.61,910.078 1061.5,908.5 Z M 1075.5,959.5 C 1076.83,964.456 1077.49,969.789 1077.5,975.5C 1077.33,980.833 1077.17,986.167 1077,991.5C 1074.85,996.218 1071.35,997.384 1066.5,995C 1064.95,993.786 1063.78,992.286 1063,990.5C 1060.84,981.078 1062.84,972.744 1069,965.5C 1071.66,964.002 1073.83,962.002 1075.5,959.5 Z"/></g>
<g><path style="opacity:0.885" fill="#fefffe" d="M 1232.5,908.5 C 1265.11,904.796 1281.11,919.129 1280.5,951.5C 1263.92,951.175 1247.42,951.508 1231,952.5C 1230.43,962.427 1231.76,972.093 1235,981.5C 1243.77,992.545 1254.27,994.379 1266.5,987C 1269.17,984.333 1271.83,981.667 1274.5,979C 1278.34,978.175 1279.84,979.675 1279,983.5C 1267.92,1011.96 1247.75,1021.46 1218.5,1012C 1209.87,1009.04 1203.37,1003.54 1199,995.5C 1188.68,972.989 1189.01,950.656 1200,928.5C 1208.19,917.462 1219.03,910.796 1232.5,908.5 Z M 1241.5,914.5 C 1245.54,916.04 1247.7,919.04 1248,923.5C 1249.07,930.816 1249.9,938.149 1250.5,945.5C 1243.83,945.5 1237.17,945.5 1230.5,945.5C 1230.8,936.947 1232.3,928.614 1235,920.5C 1236.44,917.558 1238.6,915.558 1241.5,914.5 Z"/></g>
<g><path style="opacity:0.885" fill="#fefffe" d="M 1330.5,908.5 C 1363.03,904.707 1379.03,919.04 1378.5,951.5C 1361.92,951.175 1345.42,951.508 1329,952.5C 1328.3,962.466 1329.63,972.132 1333,981.5C 1340.87,991.923 1350.7,994.09 1362.5,988C 1366.34,984.991 1370.01,981.824 1373.5,978.5C 1375.33,978.58 1376.66,979.413 1377.5,981C 1368.19,1009.62 1348.86,1020.28 1319.5,1013C 1307.19,1009.35 1298.69,1001.52 1294,989.5C 1286.89,968.514 1288.22,948.18 1298,928.5C 1306.19,917.462 1317.03,910.796 1330.5,908.5 Z M 1338.5,914.5 C 1343.3,915.476 1345.8,918.476 1346,923.5C 1347.01,930.826 1347.85,938.159 1348.5,945.5C 1341.49,945.666 1334.49,945.5 1327.5,945C 1328.79,937.499 1330.29,929.999 1332,922.5C 1333.3,919.039 1335.47,916.372 1338.5,914.5 Z"/></g>
<g><path style="opacity:0.946" fill="#6422ff" d="M 1405.5,984.5 C 1414.02,983.05 1421.52,985.05 1428,990.5C 1433.71,1000.4 1432.21,1008.9 1423.5,1016C 1413,1020.39 1403.5,1018.89 1395,1011.5C 1391.67,1004.83 1391.67,998.167 1395,991.5C 1398,988.262 1401.5,985.929 1405.5,984.5 Z"/></g>
</svg>
