<?xml version="1.0" encoding="UTF-8"?>
<!DOCTYPE svg PUBLIC "-//W3C//DTD SVG 1.1//EN" "http://www.w3.org/Graphics/SVG/1.1/DTD/svg11.dtd">
<svg xmlns="http://www.w3.org/2000/svg" version="1.1" width="2000px" height="2000px" style="shape-rendering:geometricPrecision; text-rendering:geometricPrecision; image-rendering:optimizeQuality; fill-rule:evenodd; clip-rule:evenodd" xmlns:xlink="http://www.w3.org/1999/xlink">
<g><path style="opacity:0.786" fill="#b7fe98" d="M 1498.5,841.5 C 1497.5,841.5 1496.5,841.5 1495.5,841.5C 1429.18,811.391 1360.51,787.391 1289.5,769.5C 1288.4,768.4 1287.06,767.733 1285.5,767.5C 1273.27,756.106 1260.27,745.606 1246.5,736C 1176.01,688.761 1100.01,652.761 1018.5,628C 924.543,602.301 832.21,607.301 741.5,643C 675.122,668.095 617.288,705.928 568,756.5C 550.073,776.686 535.406,799.02 524,823.5C 517.548,839.245 513.048,855.578 510.5,872.5C 509.883,872.611 509.383,872.944 509,873.5C 508.075,883.645 507.242,893.645 506.5,903.5C 493.259,822.469 511.092,749.136 560,683.5C 597.689,635.798 642.189,595.965 693.5,564C 768.094,517.464 848.761,486.464 935.5,471C 1005.33,460.315 1074.67,462.982 1143.5,479C 1189.22,490.017 1233.55,505.017 1276.5,524C 1348.67,553.902 1416.34,591.236 1479.5,636C 1513.59,660.085 1543.09,688.919 1568,722.5C 1594.31,765.593 1585.48,799.093 1541.5,823C 1527.31,829.769 1512.98,835.935 1498.5,841.5 Z"/></g>
<g><path style="opacity:0.957" fill="#f0d2e7" d="M 1285.5,767.5 C 1285.44,768.043 1285.11,768.376 1284.5,768.5C 1273.19,764.936 1261.69,761.936 1250,759.5C 1236.17,756.459 1222.5,752.793 1209,748.5C 1208,748.833 1207,749.167 1206,749.5C 1204.09,748.794 1202.09,747.794 1200,746.5C 1198.06,747.86 1196.4,747.527 1195,745.5C 1194.67,745.833 1194.33,746.167 1194,746.5C 1191.2,745.872 1188.53,744.872 1186,743.5C 1185.67,743.833 1185.33,744.167 1185,744.5C 1161.34,738.695 1137.67,734.029 1114,730.5C 1106.59,729.154 1099.26,727.487 1092,725.5C 1091,725.833 1090,726.167 1089,726.5C 1078.37,724.354 1068.04,722.02 1058,719.5C 1057.59,719.957 1057.09,720.291 1056.5,720.5C 1048.05,718.59 1039.71,717.256 1031.5,716.5C 1027.88,715.87 1024.38,714.87 1021,713.5C 1018.58,714.488 1016.25,714.155 1014,712.5C 1011.13,712.566 1008.3,712.566 1005.5,712.5C 999.08,711.165 992.913,709.832 987,708.5C 986.439,709.022 985.772,709.355 985,709.5C 971.354,707.772 958.021,705.772 945,703.5C 940.594,704.683 936.26,704.349 932,702.5C 931.439,703.022 930.772,703.355 930,703.5C 915.816,701.847 901.816,700.513 888,699.5C 870.497,699.659 853.163,699.659 836,699.5C 825.542,700.792 815.042,702.126 804.5,703.5C 762.285,706.839 724.285,720.672 690.5,745C 666.992,764.538 650.325,788.705 640.5,817.5C 639.975,818.192 639.308,818.692 638.5,819C 639.239,821.235 639.239,823.235 638.5,825C 636.731,827.269 636.065,829.602 636.5,832C 634.397,832.853 634.397,834.02 636.5,835.5C 613.672,863.148 602.672,894.982 603.5,931C 605.143,978.071 615.976,1022.9 636,1065.5C 649.229,1094.32 665.229,1121.32 684,1146.5C 688.667,1151.83 693.333,1157.17 698,1162.5C 698.791,1163.74 699.291,1165.08 699.5,1166.5C 694.833,1164.17 690.167,1161.83 685.5,1159.5C 684.391,1159.44 683.391,1159.11 682.5,1158.5C 682.719,1157.32 682.386,1156.32 681.5,1155.5C 615.06,1107.59 564.227,1046.92 529,973.5C 523.85,961.164 519.183,948.498 515,935.5C 513.26,924.533 510.76,914.533 507.5,905.5C 508.125,894.605 509.125,883.605 510.5,872.5C 513.048,855.578 517.548,839.245 524,823.5C 535.406,799.02 550.073,776.686 568,756.5C 617.288,705.928 675.122,668.095 741.5,643C 832.21,607.301 924.543,602.301 1018.5,628C 1100.01,652.761 1176.01,688.761 1246.5,736C 1260.27,745.606 1273.27,756.106 1285.5,767.5 Z"/></g>
<g><path style="opacity:1" fill="#f2d2e6" d="M 1285.5,767.5 C 1287.06,767.733 1288.4,768.4 1289.5,769.5C 1302.42,782.024 1313.92,795.691 1324,810.5C 1332.35,825.188 1333.68,840.521 1328,856.5C 1325.67,859.833 1323.33,863.167 1321,866.5C 1317.5,869.333 1314,872.167 1310.5,875C 1296.54,882.915 1282.2,889.749 1267.5,895.5C 1267.17,895.5 1266.83,895.5 1266.5,895.5C 1248.16,887.052 1229.49,879.385 1210.5,872.5C 1210.5,863.5 1210.5,854.5 1210.5,845.5C 1204.5,846.167 1198.5,846.833 1192.5,847.5C 1183.17,847.5 1173.83,847.5 1164.5,847.5C 1164.23,849.099 1164.57,850.432 1165.5,851.5C 1169.21,851.679 1171.88,853.346 1173.5,856.5C 1173.5,857.5 1173.5,858.5 1173.5,859.5C 1077.36,830.237 979.357,809.07 879.5,796C 833.7,789.168 787.7,787.168 741.5,790C 708.948,792.405 679.281,802.738 652.5,821C 646.997,825.671 641.664,830.504 636.5,835.5C 634.397,834.02 634.397,832.853 636.5,832C 636.065,829.602 636.731,827.269 638.5,825C 639.239,823.235 639.239,821.235 638.5,819C 639.308,818.692 639.975,818.192 640.5,817.5C 650.325,788.705 666.992,764.538 690.5,745C 724.285,720.672 762.285,706.839 804.5,703.5C 815.042,702.126 825.542,700.792 836,699.5C 853.163,699.659 870.497,699.659 888,699.5C 901.816,700.513 915.816,701.847 930,703.5C 930.772,703.355 931.439,703.022 932,702.5C 936.26,704.349 940.594,704.683 945,703.5C 958.021,705.772 971.354,707.772 985,709.5C 985.772,709.355 986.439,709.022 987,708.5C 992.913,709.832 999.08,711.165 1005.5,712.5C 1008.3,712.566 1011.13,712.566 1014,712.5C 1016.25,714.155 1018.58,714.488 1021,713.5C 1024.38,714.87 1027.88,715.87 1031.5,716.5C 1039.71,717.256 1048.05,718.59 1056.5,720.5C 1057.09,720.291 1057.59,719.957 1058,719.5C 1068.04,722.02 1078.37,724.354 1089,726.5C 1090,726.167 1091,725.833 1092,725.5C 1099.26,727.487 1106.59,729.154 1114,730.5C 1137.67,734.029 1161.34,738.695 1185,744.5C 1185.33,744.167 1185.67,743.833 1186,743.5C 1188.53,744.872 1191.2,745.872 1194,746.5C 1194.33,746.167 1194.67,745.833 1195,745.5C 1196.4,747.527 1198.06,747.86 1200,746.5C 1202.09,747.794 1204.09,748.794 1206,749.5C 1207,749.167 1208,748.833 1209,748.5C 1222.5,752.793 1236.17,756.459 1250,759.5C 1261.69,761.936 1273.19,764.936 1284.5,768.5C 1285.11,768.376 1285.44,768.043 1285.5,767.5 Z"/></g>
<g><path style="opacity:1" fill="#c5fba0" d="M 1289.5,769.5 C 1360.51,787.391 1429.18,811.391 1495.5,841.5C 1461.51,852.889 1428.51,866.722 1396.5,883C 1389.76,886.693 1383.43,890.86 1377.5,895.5C 1352.44,893.841 1335.44,904.508 1326.5,927.5C 1322.17,924.331 1317.5,921.664 1312.5,919.5C 1308.74,905.917 1299.74,898.084 1285.5,896C 1279.51,895.501 1273.51,895.334 1267.5,895.5C 1282.2,889.749 1296.54,882.915 1310.5,875C 1314,872.167 1317.5,869.333 1321,866.5C 1323.33,863.167 1325.67,859.833 1328,856.5C 1333.68,840.521 1332.35,825.188 1324,810.5C 1313.92,795.691 1302.42,782.024 1289.5,769.5 Z"/></g>
<g><path style="opacity:1" fill="#fec7f9" d="M 1173.5,859.5 C 1174.11,860.391 1174.44,861.391 1174.5,862.5C 1174.5,887.167 1174.5,911.833 1174.5,936.5C 1166.52,941.82 1158.86,947.486 1151.5,953.5C 1150.83,943.341 1150.17,933.341 1149.5,923.5C 1149.19,919.64 1148.52,915.974 1147.5,912.5C 1146.66,908.676 1144.66,905.51 1141.5,903C 1132.33,897.422 1122.33,894.922 1111.5,895.5C 1098.84,894.556 1087.18,897.39 1076.5,904C 1068.5,911.414 1067.33,919.914 1073,929.5C 1074.54,931.378 1076.38,932.878 1078.5,934C 1098.16,936.358 1105.66,928.191 1101,909.5C 1098.31,907.306 1095.47,905.306 1092.5,903.5C 1091.48,902.998 1091.31,902.332 1092,901.5C 1097.9,897.53 1103.73,897.53 1109.5,901.5C 1110.42,903.928 1111.58,906.261 1113,908.5C 1113.5,917.494 1113.67,926.494 1113.5,935.5C 1111.28,938.624 1108.28,940.791 1104.5,942C 1094.93,945.079 1085.6,948.745 1076.5,953C 1072.67,955.668 1069.33,958.835 1066.5,962.5C 1065.44,963.6 1064.61,964.934 1064,966.5C 1063.18,971.684 1063.35,976.684 1064.5,981.5C 1072.18,996.679 1084.18,1001.18 1100.5,995C 1105.92,992.399 1110.59,988.899 1114.5,984.5C 1116.58,986.381 1117.91,988.715 1118.5,991.5C 1118.41,992.496 1118.75,993.329 1119.5,994C 1113.68,1003.97 1109.68,1013.8 1107.5,1023.5C 1105.46,1024.5 1105.12,1025.84 1106.5,1027.5C 1105.97,1028.19 1105.31,1028.69 1104.5,1029C 1104.5,1031.67 1104.5,1034.33 1104.5,1037C 1102.68,1040.26 1102.01,1043.59 1102.5,1047C 1100.61,1048.08 1100.27,1049.41 1101.5,1051C 1100.33,1051.42 1099.33,1052.09 1098.5,1053C 1098.83,1054.67 1099.17,1056.33 1099.5,1058C 1097.5,1060.67 1095.5,1063.33 1093.5,1066C 1094.46,1067.15 1094.12,1068.15 1092.5,1069C 1093.17,1069.33 1093.83,1069.67 1094.5,1070C 1090.67,1074.04 1088.17,1078.87 1087,1084.5C 1086.67,1084.17 1086.33,1083.83 1086,1083.5C 1082.52,1089.63 1078.69,1095.46 1074.5,1101C 1074.83,1101.33 1075.17,1101.67 1075.5,1102C 1073.83,1103 1072.17,1104 1070.5,1105C 1070.83,1105.33 1071.17,1105.67 1071.5,1106C 1070.39,1107.57 1069.05,1108.9 1067.5,1110C 1067.83,1110.33 1068.17,1110.67 1068.5,1111C 1065.17,1115 1061.5,1118.67 1057.5,1122C 1057.83,1122.33 1058.17,1122.67 1058.5,1123C 1055.31,1124.69 1052.97,1127.19 1051.5,1130.5C 1044.12,1137.08 1037.28,1143.41 1031,1149.5C 1022.59,1154.7 1014.43,1160.87 1006.5,1168C 999.951,1169.89 994.451,1173.39 990,1178.5C 987.91,1177.21 986.576,1177.88 986,1180.5C 983.872,1180.07 981.705,1180.57 979.5,1182C 980.654,1182.91 980.487,1183.75 979,1184.5C 976.263,1183.53 974.263,1184.53 973,1187.5C 972.586,1187.04 972.086,1186.71 971.5,1186.5C 970.655,1188.76 969.322,1189.43 967.5,1188.5C 963.377,1190.98 959.21,1193.31 955,1195.5C 954.586,1195.04 954.086,1194.71 953.5,1194.5C 952.174,1195.99 950.674,1197.32 949,1198.5C 948.586,1198.04 948.086,1197.71 947.5,1197.5C 930.256,1204.43 912.59,1208.93 894.5,1211C 894,1211.5 893.5,1212 893,1212.5C 875.524,1212.4 858.524,1212.4 842,1212.5C 841.333,1211.83 840.667,1211.17 840,1210.5C 825.834,1209.75 811.5,1207.42 797,1203.5C 796.228,1203.64 795.561,1203.98 795,1204.5C 792.994,1202.25 790.66,1201.58 788,1202.5C 785.901,1200.35 783.567,1199.68 781,1200.5C 780.047,1198.41 778.714,1198.07 777,1199.5C 772.843,1196.83 768.343,1194.83 763.5,1193.5C 762.914,1193.71 762.414,1194.04 762,1194.5C 759.014,1192.27 755.68,1190.61 752,1189.5C 751.667,1189.83 751.333,1190.17 751,1190.5C 749.184,1188.56 747.184,1187.89 745,1188.5C 743.087,1185.88 740.754,1184.88 738,1185.5C 734.789,1183.14 731.289,1181.14 727.5,1179.5C 726.914,1179.71 726.414,1180.04 726,1180.5C 724.399,1178.03 722.399,1177.03 720,1177.5C 718.667,1176.83 717.667,1175.83 717,1174.5C 715.984,1175.63 715.317,1175.3 715,1173.5C 713.984,1174.63 713.317,1174.3 713,1172.5C 711.984,1173.63 711.317,1173.3 711,1171.5C 710,1171.5 709,1171.5 708,1171.5C 707.658,1169.38 706.825,1169.05 705.5,1170.5C 703.463,1169.15 701.463,1167.82 699.5,1166.5C 699.291,1165.08 698.791,1163.74 698,1162.5C 693.333,1157.17 688.667,1151.83 684,1146.5C 665.229,1121.32 649.229,1094.32 636,1065.5C 615.976,1022.9 605.143,978.071 603.5,931C 602.672,894.982 613.672,863.148 636.5,835.5C 641.664,830.504 646.997,825.671 652.5,821C 679.281,802.738 708.948,792.405 741.5,790C 787.7,787.168 833.7,789.168 879.5,796C 979.357,809.07 1077.36,830.237 1173.5,859.5 Z"/></g>
<g><path style="opacity:0.997" fill="#fef2c1" d="M 1495.5,841.5 C 1496.5,841.5 1497.5,841.5 1498.5,841.5C 1539.8,860.132 1578.13,883.298 1613.5,911C 1693.25,978.807 1699.75,1052.97 1633,1133.5C 1597.23,1171.3 1557.4,1203.8 1513.5,1231C 1464.67,1261.11 1414.34,1288.77 1362.5,1314C 1225.59,1374.54 1086.59,1379.54 945.5,1329C 887.709,1307.8 836.042,1276.96 790.5,1236.5C 877.33,1282.36 969.33,1297.19 1066.5,1281C 1118.81,1270.23 1168.14,1251.56 1214.5,1225C 1256.87,1203.16 1296.87,1177.83 1334.5,1149C 1351.7,1134.8 1367.2,1118.96 1381,1101.5C 1387.06,1092.43 1392.73,1083.1 1398,1073.5C 1404.97,1054.75 1406.97,1035.41 1404,1015.5C 1401.24,1006.75 1397.74,998.414 1393.5,990.5C 1401,983.32 1406,974.653 1408.5,964.5C 1407.45,964.351 1406.45,964.517 1405.5,965C 1400.26,972.788 1392.92,976.621 1383.5,976.5C 1376.87,968.201 1369.53,960.534 1361.5,953.5C 1361.5,951.5 1361.5,949.5 1361.5,947.5C 1361.5,943.833 1361.5,940.167 1361.5,936.5C 1377.83,936.5 1394.17,936.5 1410.5,936.5C 1411.38,928.31 1410.05,920.643 1406.5,913.5C 1400.49,901.856 1390.82,895.856 1377.5,895.5C 1383.43,890.86 1389.76,886.693 1396.5,883C 1428.51,866.722 1461.51,852.889 1495.5,841.5 Z"/></g>
<g><path style="opacity:1" fill="#040304" d="M 1210.5,872.5 C 1210.33,910.835 1210.5,949.168 1211,987.5C 1212.81,991.655 1215.98,993.655 1220.5,993.5C 1220.5,994.5 1220.5,995.5 1220.5,996.5C 1202.17,996.5 1183.83,996.5 1165.5,996.5C 1165.5,995.5 1165.5,994.5 1165.5,993.5C 1168.92,993.482 1171.59,992.149 1173.5,989.5C 1174.67,988.486 1175.34,987.153 1175.5,985.5C 1176.66,944.335 1176.83,903.002 1176,861.5C 1175.63,859.509 1174.79,857.842 1173.5,856.5C 1171.88,853.346 1169.21,851.679 1165.5,851.5C 1165.5,850.5 1165.5,849.5 1165.5,848.5C 1174.68,848.827 1183.68,848.493 1192.5,847.5C 1198.5,846.833 1204.5,846.167 1210.5,845.5C 1210.5,854.5 1210.5,863.5 1210.5,872.5 Z"/></g>
<g><path style="opacity:1" fill="#080608" d="M 811.5,846.5 C 820.74,845.305 828.907,847.638 836,853.5C 840.082,861.838 838.916,869.338 832.5,876C 822.977,880.219 813.311,880.553 803.5,877C 796.375,870.913 794.542,863.413 798,854.5C 801.696,850.268 806.196,847.602 811.5,846.5 Z"/></g>
<g><path style="opacity:1" fill="#5b4f56" d="M 1192.5,847.5 C 1183.68,848.493 1174.68,848.827 1165.5,848.5C 1165.5,849.5 1165.5,850.5 1165.5,851.5C 1164.57,850.432 1164.23,849.099 1164.5,847.5C 1173.83,847.5 1183.17,847.5 1192.5,847.5 Z"/></g>
<g><path style="opacity:1" fill="#755b73" d="M 656.5,861.5 C 678.66,860.503 700.994,860.169 723.5,860.5C 723.5,862.167 723.5,863.833 723.5,865.5C 721.167,865.5 718.833,865.5 716.5,865.5C 718.265,864.539 720.265,864.205 722.5,864.5C 722.5,863.5 722.5,862.5 722.5,861.5C 700.5,861.5 678.5,861.5 656.5,861.5 Z"/></g>
<g><path style="opacity:1" fill="#6e566c" d="M 793.5,864.5 C 793.5,863.5 793.5,862.5 793.5,861.5C 780.833,861.5 768.167,861.5 755.5,861.5C 755.5,862.5 755.5,863.5 755.5,864.5C 754.566,863.432 754.232,862.099 754.5,860.5C 767.833,860.5 781.167,860.5 794.5,860.5C 794.768,862.099 794.434,863.432 793.5,864.5 Z"/></g>
<g><path style="opacity:1" fill="#050405" d="M 656.5,861.5 C 678.5,861.5 700.5,861.5 722.5,861.5C 722.5,862.5 722.5,863.5 722.5,864.5C 720.265,864.205 718.265,864.539 716.5,865.5C 710.151,866.027 707.984,869.361 710,875.5C 722.084,903.774 733.75,932.107 745,960.5C 746,959.167 747,957.833 748,956.5C 752.822,943.199 757.322,929.866 761.5,916.5C 764.454,911.652 766.454,906.319 767.5,900.5C 769.789,891.978 770.622,883.311 770,874.5C 767.183,868.335 762.35,865.001 755.5,864.5C 755.5,863.5 755.5,862.5 755.5,861.5C 768.167,861.5 780.833,861.5 793.5,861.5C 793.5,862.5 793.5,863.5 793.5,864.5C 786.714,869.458 781.548,875.791 778,883.5C 764.812,921.269 751.479,958.936 738,996.5C 731.256,997.479 724.422,997.812 717.5,997.5C 700.74,954.389 682.907,911.722 664,869.5C 662.019,867.343 659.686,865.676 657,864.5C 656.517,863.552 656.351,862.552 656.5,861.5 Z"/></g>
<g><path style="opacity:1" fill="#cca0c8" d="M 1174.5,862.5 C 1175.5,903.33 1175.83,944.33 1175.5,985.5C 1175.34,987.153 1174.67,988.486 1173.5,989.5C 1174.44,971.861 1174.78,954.194 1174.5,936.5C 1174.5,911.833 1174.5,887.167 1174.5,862.5 Z"/></g>
<g><path style="opacity:1" fill="#544252" d="M 1173.5,856.5 C 1174.79,857.842 1175.63,859.509 1176,861.5C 1176.83,903.002 1176.66,944.335 1175.5,985.5C 1175.83,944.33 1175.5,903.33 1174.5,862.5C 1174.44,861.391 1174.11,860.391 1173.5,859.5C 1173.5,858.5 1173.5,857.5 1173.5,856.5 Z"/></g>
<g><path style="opacity:1" fill="#020102" d="M 831.5,894.5 C 832.833,894.5 834.167,894.5 835.5,894.5C 835.169,925.338 835.502,956.005 836.5,986.5C 837.701,991.701 841.034,994.034 846.5,993.5C 846.737,994.791 846.404,995.791 845.5,996.5C 827.5,996.5 809.5,996.5 791.5,996.5C 791.5,995.5 791.5,994.5 791.5,993.5C 796.265,993.212 799.432,990.879 801,986.5C 801.667,960.167 801.667,933.833 801,907.5C 799.019,903.172 795.686,900.506 791,899.5C 790.517,898.552 790.351,897.552 790.5,896.5C 804.228,896.819 817.894,896.152 831.5,894.5 Z"/></g>
<g><path style="opacity:1" fill="#040304" d="M 988.5,985.5 C 989.447,991.814 993.114,994.48 999.5,993.5C 1000.17,993.5 1000.5,993.833 1000.5,994.5C 989.308,998.992 977.974,999.492 966.5,996C 958.022,991.466 953.689,984.299 953.5,974.5C 953.667,952.497 953.5,930.497 953,908.5C 952.768,907.263 952.268,906.263 951.5,905.5C 949.652,902.069 946.652,900.403 942.5,900.5C 942.5,899.167 942.5,897.833 942.5,896.5C 951.584,896.804 960.584,896.471 969.5,895.5C 975.529,895.575 981.529,895.241 987.5,894.5C 987.169,925.005 987.502,955.338 988.5,985.5 Z"/></g>
<g><path style="opacity:1" fill="#060405" d="M 1055.5,993.5 C 1055.5,994.5 1055.5,995.5 1055.5,996.5C 1043.32,996.172 1031.32,996.505 1019.5,997.5C 1016.83,997.5 1014.17,997.5 1011.5,997.5C 1011.88,992.93 1011.21,988.596 1009.5,984.5C 1010.66,958.67 1010.83,932.67 1010,906.5C 1009.72,905.584 1009.22,904.918 1008.5,904.5C 1006.59,901.851 1003.92,900.518 1000.5,900.5C 1000.5,899.167 1000.5,897.833 1000.5,896.5C 1015.54,896.678 1030.54,896.011 1045.5,894.5C 1045.33,924.502 1045.5,954.502 1046,984.5C 1047.12,989.793 1050.29,992.793 1055.5,993.5 Z"/></g>
<g><path style="opacity:0.887" fill="#d9e4c7" d="M 510.5,872.5 C 509.125,883.605 508.125,894.605 507.5,905.5C 507.167,905.5 506.833,905.5 506.5,905.5C 506.5,904.833 506.5,904.167 506.5,903.5C 507.242,893.645 508.075,883.645 509,873.5C 509.383,872.944 509.883,872.611 510.5,872.5 Z"/></g>
<g><path style="opacity:1" fill="#7f637d" d="M 831.5,894.5 C 832.919,893.549 834.585,893.216 836.5,893.5C 836.5,924.5 836.5,955.5 836.5,986.5C 835.502,956.005 835.169,925.338 835.5,894.5C 834.167,894.5 832.833,894.5 831.5,894.5 Z"/></g>
<g><path style="opacity:1" fill="#050405" d="M 932.5,957.5 C 933.32,963.797 933.653,970.131 933.5,976.5C 927.26,989.194 916.926,996.361 902.5,998C 897.167,998.667 891.833,998.667 886.5,998C 880.043,995.354 873.543,992.854 867,990.5C 863.676,991.326 861.51,993.326 860.5,996.5C 858.52,984.545 857.854,972.212 858.5,959.5C 859.5,959.5 860.5,959.5 861.5,959.5C 863.562,968.516 866.729,977.182 871,985.5C 879.568,995.236 888.568,995.903 898,987.5C 899.266,981.405 898.266,975.738 895,970.5C 885.03,961.53 875.363,952.197 866,942.5C 862.954,938.398 860.454,934.065 858.5,929.5C 858.392,924.13 858.725,918.797 859.5,913.5C 864.175,905.355 871.175,899.855 880.5,897C 894.536,894.065 908.036,895.565 921,901.5C 924.41,900.925 926.243,898.925 926.5,895.5C 927.5,895.5 928.5,895.5 929.5,895.5C 929.5,906.833 929.5,918.167 929.5,929.5C 928.167,929.5 926.833,929.5 925.5,929.5C 925.826,917.311 920.826,908.145 910.5,902C 904.589,899.691 898.922,900.025 893.5,903C 890.64,906.681 889.807,910.848 891,915.5C 894.083,920.588 897.917,925.088 902.5,929C 911.921,935.75 920.754,943.25 929,951.5C 930.421,953.405 931.588,955.405 932.5,957.5 Z"/></g>
<g><path style="opacity:1" fill="#b18bae" d="M 988.5,985.5 C 987.502,955.338 987.169,925.005 987.5,894.5C 981.529,895.241 975.529,895.575 969.5,895.5C 975.695,894.413 982.029,893.413 988.5,892.5C 988.5,923.5 988.5,954.5 988.5,985.5 Z"/></g>
<g><path style="opacity:1" fill="#050305" d="M 1147.5,912.5 C 1148.09,937.658 1148.75,962.658 1149.5,987.5C 1152.01,990.087 1154.68,990.087 1157.5,987.5C 1158.41,988.328 1159.08,989.328 1159.5,990.5C 1147.88,997.842 1135.54,999.342 1122.5,995C 1121.29,993.624 1119.96,992.458 1118.5,991.5C 1117.91,988.715 1116.58,986.381 1114.5,984.5C 1110.59,988.899 1105.92,992.399 1100.5,995C 1084.18,1001.18 1072.18,996.679 1064.5,981.5C 1064.15,975.013 1064.82,968.68 1066.5,962.5C 1069.33,958.835 1072.67,955.668 1076.5,953C 1085.6,948.745 1094.93,945.079 1104.5,942C 1108.28,940.791 1111.28,938.624 1113.5,935.5C 1114.27,934.737 1114.77,933.737 1115,932.5C 1115.67,925.167 1115.67,917.833 1115,910.5C 1114.68,906.508 1112.84,903.508 1109.5,901.5C 1103.73,897.53 1097.9,897.53 1092,901.5C 1091.31,902.332 1091.48,902.998 1092.5,903.5C 1095.47,905.306 1098.31,907.306 1101,909.5C 1105.66,928.191 1098.16,936.358 1078.5,934C 1076.38,932.878 1074.54,931.378 1073,929.5C 1067.33,919.914 1068.5,911.414 1076.5,904C 1087.18,897.39 1098.84,894.556 1111.5,895.5C 1122.33,894.922 1132.33,897.422 1141.5,903C 1144.66,905.51 1146.66,908.676 1147.5,912.5 Z"/></g>
<g><path style="opacity:1" fill="#050405" d="M 1266.5,895.5 C 1266.83,895.5 1267.17,895.5 1267.5,895.5C 1273.51,895.334 1279.51,895.501 1285.5,896C 1299.74,898.084 1308.74,905.917 1312.5,919.5C 1313.34,924.787 1313.68,930.12 1313.5,935.5C 1297.17,935.5 1280.83,935.5 1264.5,935.5C 1262.42,949.326 1265.42,961.826 1273.5,973C 1278.4,976.224 1283.73,977.558 1289.5,977C 1292.83,976 1296.17,975 1299.5,974C 1303.31,971.02 1306.98,967.854 1310.5,964.5C 1310.83,965.167 1311.17,965.833 1311.5,966.5C 1302.84,992.169 1285.17,1002.34 1258.5,997C 1246.19,993.363 1237.69,985.529 1233,973.5C 1226.21,953.341 1227.21,933.675 1236,914.5C 1244.15,904.688 1254.32,898.355 1266.5,895.5 Z"/></g>
<g><path style="opacity:1" fill="#050404" d="M 1377.5,895.5 C 1390.82,895.856 1400.49,901.856 1406.5,913.5C 1408.78,920.641 1409.78,927.974 1409.5,935.5C 1393.17,935.5 1376.83,935.5 1360.5,935.5C 1360.18,939.702 1360.52,943.702 1361.5,947.5C 1361.5,949.5 1361.5,951.5 1361.5,953.5C 1361.85,963.683 1366.52,971.183 1375.5,976C 1378.15,976.497 1380.81,976.664 1383.5,976.5C 1392.92,976.621 1400.26,972.788 1405.5,965C 1406.45,964.517 1407.45,964.351 1408.5,964.5C 1406,974.653 1401,983.32 1393.5,990.5C 1376.67,1000.97 1359.67,1001.14 1342.5,991C 1334.41,984.318 1329.24,975.818 1327,965.5C 1325.26,952.831 1325.09,940.164 1326.5,927.5C 1335.44,904.508 1352.44,893.841 1377.5,895.5 Z"/></g>
<g><path style="opacity:1" fill="#f3e7b7" d="M 1378.5,903.5 C 1379.61,911.006 1380.95,918.339 1382.5,925.5C 1382.5,927.833 1382.5,930.167 1382.5,932.5C 1374.98,932.825 1367.65,932.492 1360.5,931.5C 1361.13,926.859 1361.46,922.193 1361.5,917.5C 1362.05,911.438 1364.05,905.938 1367.5,901C 1372.15,898.432 1375.81,899.265 1378.5,903.5 Z"/></g>
<g><path style="opacity:1" fill="#f3c0ee" d="M 1264.5,922.5 C 1265.65,916.893 1266.98,911.226 1268.5,905.5C 1271.73,898.824 1276.23,897.824 1282,902.5C 1283.84,905.533 1284.84,908.866 1285,912.5C 1285.5,919.158 1285.67,925.825 1285.5,932.5C 1278.5,932.5 1271.5,932.5 1264.5,932.5C 1264.5,929.167 1264.5,925.833 1264.5,922.5 Z"/></g>
<g><path style="opacity:1" fill="#fdc7f8" d="M 1210.5,872.5 C 1229.49,879.385 1248.16,887.052 1266.5,895.5C 1254.32,898.355 1244.15,904.688 1236,914.5C 1227.21,933.675 1226.21,953.341 1233,973.5C 1237.69,985.529 1246.19,993.363 1258.5,997C 1285.17,1002.34 1302.84,992.169 1311.5,966.5C 1311.17,965.833 1310.83,965.167 1310.5,964.5C 1306.98,967.854 1303.31,971.02 1299.5,974C 1296.17,975 1292.83,976 1289.5,977C 1283.73,977.558 1278.4,976.224 1273.5,973C 1265.42,961.826 1262.42,949.326 1264.5,935.5C 1280.83,935.5 1297.17,935.5 1313.5,935.5C 1313.68,930.12 1313.34,924.787 1312.5,919.5C 1317.5,921.664 1322.17,924.331 1326.5,927.5C 1325.09,940.164 1325.26,952.831 1327,965.5C 1329.24,975.818 1334.41,984.318 1342.5,991C 1359.67,1001.14 1376.67,1000.97 1393.5,990.5C 1397.74,998.414 1401.24,1006.75 1404,1015.5C 1406.97,1035.41 1404.97,1054.75 1398,1073.5C 1392.73,1083.1 1387.06,1092.43 1381,1101.5C 1367.2,1118.96 1351.7,1134.8 1334.5,1149C 1296.87,1177.83 1256.87,1203.16 1214.5,1225C 1168.14,1251.56 1118.81,1270.23 1066.5,1281C 969.33,1297.19 877.33,1282.36 790.5,1236.5C 759.946,1220.55 732.613,1200.22 708.5,1175.5C 707.925,1173.59 706.925,1171.92 705.5,1170.5C 706.825,1169.05 707.658,1169.38 708,1171.5C 709,1171.5 710,1171.5 711,1171.5C 711.317,1173.3 711.984,1173.63 713,1172.5C 713.317,1174.3 713.984,1174.63 715,1173.5C 715.317,1175.3 715.984,1175.63 717,1174.5C 717.667,1175.83 718.667,1176.83 720,1177.5C 722.399,1177.03 724.399,1178.03 726,1180.5C 726.414,1180.04 726.914,1179.71 727.5,1179.5C 731.289,1181.14 734.789,1183.14 738,1185.5C 740.754,1184.88 743.087,1185.88 745,1188.5C 747.184,1187.89 749.184,1188.56 751,1190.5C 751.333,1190.17 751.667,1189.83 752,1189.5C 755.68,1190.61 759.014,1192.27 762,1194.5C 762.414,1194.04 762.914,1193.71 763.5,1193.5C 768.343,1194.83 772.843,1196.83 777,1199.5C 778.714,1198.07 780.047,1198.41 781,1200.5C 783.567,1199.68 785.901,1200.35 788,1202.5C 790.66,1201.58 792.994,1202.25 795,1204.5C 795.561,1203.98 796.228,1203.64 797,1203.5C 811.5,1207.42 825.834,1209.75 840,1210.5C 840.667,1211.17 841.333,1211.83 842,1212.5C 858.524,1212.4 875.524,1212.4 893,1212.5C 893.5,1212 894,1211.5 894.5,1211C 912.59,1208.93 930.256,1204.43 947.5,1197.5C 948.086,1197.71 948.586,1198.04 949,1198.5C 950.674,1197.32 952.174,1195.99 953.5,1194.5C 954.086,1194.71 954.586,1195.04 955,1195.5C 959.21,1193.31 963.377,1190.98 967.5,1188.5C 969.322,1189.43 970.655,1188.76 971.5,1186.5C 972.086,1186.71 972.586,1187.04 973,1187.5C 974.263,1184.53 976.263,1183.53 979,1184.5C 980.487,1183.75 980.654,1182.91 979.5,1182C 981.705,1180.57 983.872,1180.07 986,1180.5C 986.576,1177.88 987.91,1177.21 990,1178.5C 994.451,1173.39 999.951,1169.89 1006.5,1168C 1014.43,1160.87 1022.59,1154.7 1031,1149.5C 1037.28,1143.41 1044.12,1137.08 1051.5,1130.5C 1052.97,1127.19 1055.31,1124.69 1058.5,1123C 1058.17,1122.67 1057.83,1122.33 1057.5,1122C 1061.5,1118.67 1065.17,1115 1068.5,1111C 1068.17,1110.67 1067.83,1110.33 1067.5,1110C 1069.05,1108.9 1070.39,1107.57 1071.5,1106C 1071.17,1105.67 1070.83,1105.33 1070.5,1105C 1072.17,1104 1073.83,1103 1075.5,1102C 1075.17,1101.67 1074.83,1101.33 1074.5,1101C 1078.69,1095.46 1082.52,1089.63 1086,1083.5C 1086.33,1083.83 1086.67,1084.17 1087,1084.5C 1088.17,1078.87 1090.67,1074.04 1094.5,1070C 1093.83,1069.67 1093.17,1069.33 1092.5,1069C 1094.12,1068.15 1094.46,1067.15 1093.5,1066C 1095.5,1063.33 1097.5,1060.67 1099.5,1058C 1099.17,1056.33 1098.83,1054.67 1098.5,1053C 1099.33,1052.09 1100.33,1051.42 1101.5,1051C 1100.27,1049.41 1100.61,1048.08 1102.5,1047C 1102.01,1043.59 1102.68,1040.26 1104.5,1037C 1104.5,1034.33 1104.5,1031.67 1104.5,1029C 1105.31,1028.69 1105.97,1028.19 1106.5,1027.5C 1105.12,1025.84 1105.46,1024.5 1107.5,1023.5C 1109.68,1013.8 1113.68,1003.97 1119.5,994C 1118.75,993.329 1118.41,992.496 1118.5,991.5C 1119.96,992.458 1121.29,993.624 1122.5,995C 1135.54,999.342 1147.88,997.842 1159.5,990.5C 1159.08,989.328 1158.41,988.328 1157.5,987.5C 1154.68,990.087 1152.01,990.087 1149.5,987.5C 1149.5,966.167 1149.5,944.833 1149.5,923.5C 1150.17,933.341 1150.83,943.341 1151.5,953.5C 1158.86,947.486 1166.52,941.82 1174.5,936.5C 1174.78,954.194 1174.44,971.861 1173.5,989.5C 1171.59,992.149 1168.92,993.482 1165.5,993.5C 1164.57,994.568 1164.23,995.901 1164.5,997.5C 1183.34,997.83 1202.01,997.497 1220.5,996.5C 1220.5,995.5 1220.5,994.5 1220.5,993.5C 1215.98,993.655 1212.81,991.655 1211,987.5C 1210.5,949.168 1210.33,910.835 1210.5,872.5 Z"/></g>
<g><path style="opacity:1" fill="#7e637c" d="M 767.5,900.5 C 766.454,906.319 764.454,911.652 761.5,916.5C 762.932,910.859 764.932,905.525 767.5,900.5 Z"/></g>
<g><path style="opacity:1" fill="#856983" d="M 1268.5,905.5 C 1266.98,911.226 1265.65,916.893 1264.5,922.5C 1264.13,916.317 1265.46,910.651 1268.5,905.5 Z"/></g>
<g><path style="opacity:1" fill="#92728f" d="M 951.5,905.5 C 952.268,906.263 952.768,907.263 953,908.5C 953.5,930.497 953.667,952.497 953.5,974.5C 952.793,951.647 952.126,928.647 951.5,905.5 Z"/></g>
<g><path style="opacity:1" fill="#c89dc4" d="M 1008.5,904.5 C 1009.22,904.918 1009.72,905.584 1010,906.5C 1010.83,932.67 1010.66,958.67 1009.5,984.5C 1009.8,957.808 1009.46,931.141 1008.5,904.5 Z"/></g>
<g><path style="opacity:1" fill="#c097bc" d="M 1109.5,901.5 C 1112.84,903.508 1114.68,906.508 1115,910.5C 1115.67,917.833 1115.67,925.167 1115,932.5C 1114.77,933.737 1114.27,934.737 1113.5,935.5C 1113.67,926.494 1113.5,917.494 1113,908.5C 1111.58,906.261 1110.42,903.928 1109.5,901.5 Z"/></g>
<g><path style="opacity:0.764" fill="#fec8f9" d="M 506.5,905.5 C 506.833,905.5 507.167,905.5 507.5,905.5C 510.76,914.533 513.26,924.533 515,935.5C 519.183,948.498 523.85,961.164 529,973.5C 564.227,1046.92 615.06,1107.59 681.5,1155.5C 682.386,1156.32 682.719,1157.32 682.5,1158.5C 631.517,1128.38 588.351,1089.38 553,1041.5C 524.255,1000.77 508.755,955.433 506.5,905.5 Z"/></g>
<g><path style="opacity:1" fill="#977694" d="M 859.5,913.5 C 858.725,918.797 858.392,924.13 858.5,929.5C 857.352,925.019 857.185,920.352 858,915.5C 858.278,914.584 858.778,913.918 859.5,913.5 Z"/></g>
<g><path style="opacity:1" fill="#aba382" d="M 1378.5,903.5 C 1382.01,910.293 1383.34,917.626 1382.5,925.5C 1380.95,918.339 1379.61,911.006 1378.5,903.5 Z"/></g>
<g><path style="opacity:1" fill="#524e3f" d="M 1361.5,917.5 C 1361.46,922.193 1361.13,926.859 1360.5,931.5C 1359.34,926.769 1359.67,922.103 1361.5,917.5 Z"/></g>
<g><path style="opacity:1" fill="#a1997a" d="M 1406.5,913.5 C 1410.05,920.643 1411.38,928.31 1410.5,936.5C 1394.17,936.5 1377.83,936.5 1361.5,936.5C 1361.5,940.167 1361.5,943.833 1361.5,947.5C 1360.52,943.702 1360.18,939.702 1360.5,935.5C 1376.83,935.5 1393.17,935.5 1409.5,935.5C 1409.78,927.974 1408.78,920.641 1406.5,913.5 Z"/></g>
<g><path style="opacity:1" fill="#f7c2f2" d="M 1113.5,941.5 C 1114.5,953.655 1114.83,965.989 1114.5,978.5C 1113.94,979.79 1112.94,980.623 1111.5,981C 1101.33,982.328 1097,977.828 1098.5,967.5C 1098.16,962.897 1098.99,958.564 1101,954.5C 1104.67,949.664 1108.84,945.331 1113.5,941.5 Z"/></g>
<g><path style="opacity:1" fill="#856882" d="M 1113.5,941.5 C 1113.56,940.957 1113.89,940.624 1114.5,940.5C 1115.82,953.327 1115.82,965.994 1114.5,978.5C 1114.83,965.989 1114.5,953.655 1113.5,941.5 Z"/></g>
<g><path style="opacity:1" fill="#4b3b49" d="M 1147.5,912.5 C 1148.52,915.974 1149.19,919.64 1149.5,923.5C 1149.5,944.833 1149.5,966.167 1149.5,987.5C 1148.75,962.658 1148.09,937.658 1147.5,912.5 Z"/></g>
<g><path style="opacity:1" fill="#f2c0eb" d="M 1361.5,953.5 C 1369.53,960.534 1376.87,968.201 1383.5,976.5C 1380.81,976.664 1378.15,976.497 1375.5,976C 1366.52,971.183 1361.85,963.683 1361.5,953.5 Z"/></g>
<g><path style="opacity:1" fill="#725970" d="M 858.5,959.5 C 857.854,972.212 858.52,984.545 860.5,996.5C 859.791,997.404 858.791,997.737 857.5,997.5C 857.171,984.656 857.505,971.989 858.5,959.5 Z"/></g>
<g><path style="opacity:1" fill="#6828fd" d="M 1438.5,963.5 C 1457.83,961.98 1464.67,970.313 1459,988.5C 1456.66,991.754 1453.49,993.588 1449.5,994C 1432.14,996.967 1424.64,989.801 1427,972.5C 1429.35,967.431 1433.18,964.431 1438.5,963.5 Z"/></g>
<g><path style="opacity:1" fill="#604b5e" d="M 932.5,957.5 C 934.039,960.865 934.706,964.531 934.5,968.5C 934.497,971.355 934.164,974.022 933.5,976.5C 933.653,970.131 933.32,963.797 932.5,957.5 Z"/></g>
<g><path style="opacity:1" fill="#745b71" d="M 1066.5,962.5 C 1064.82,968.68 1064.15,975.013 1064.5,981.5C 1063.35,976.684 1063.18,971.684 1064,966.5C 1064.61,964.934 1065.44,963.6 1066.5,962.5 Z"/></g>
<g><path style="opacity:1" fill="#7e637c" d="M 1009.5,984.5 C 1011.21,988.596 1011.88,992.93 1011.5,997.5C 1014.17,997.5 1016.83,997.5 1019.5,997.5C 1016.71,998.477 1013.71,998.81 1010.5,998.5C 1010.67,994.818 1010.5,991.152 1010,987.5C 1007.52,990.823 1004.35,993.157 1000.5,994.5C 1000.5,993.833 1000.17,993.5 999.5,993.5C 1004.1,991.895 1007.44,988.895 1009.5,984.5 Z"/></g>
<g><path style="opacity:1" fill="#624d60" d="M 791.5,993.5 C 791.5,994.5 791.5,995.5 791.5,996.5C 809.5,996.5 827.5,996.5 845.5,996.5C 827.341,997.497 809.008,997.83 790.5,997.5C 790.232,995.901 790.566,994.568 791.5,993.5 Z"/></g>
<g><path style="opacity:1" fill="#5d495b" d="M 1055.5,993.5 C 1056.43,994.568 1056.77,995.901 1056.5,997.5C 1044.17,997.5 1031.83,997.5 1019.5,997.5C 1031.32,996.505 1043.32,996.172 1055.5,996.5C 1055.5,995.5 1055.5,994.5 1055.5,993.5 Z"/></g>
<g><path style="opacity:1" fill="#644f62" d="M 1165.5,993.5 C 1165.5,994.5 1165.5,995.5 1165.5,996.5C 1183.83,996.5 1202.17,996.5 1220.5,996.5C 1202.01,997.497 1183.34,997.83 1164.5,997.5C 1164.23,995.901 1164.57,994.568 1165.5,993.5 Z"/></g>
<g><path style="opacity:0.641" fill="#bbfb9f" d="M 685.5,1159.5 C 690.167,1161.83 694.833,1164.17 699.5,1166.5C 701.463,1167.82 703.463,1169.15 705.5,1170.5C 706.925,1171.92 707.925,1173.59 708.5,1175.5C 700.276,1170.94 692.61,1165.61 685.5,1159.5 Z"/></g>
</svg>
